# xmcd
#
# Track frame offsets: 
#        150
#        19190
#        33284
#        63273
#        83166
#        99048
#        124678
#        137083
#        156364
#        181224
#        201053
#        216878
#        241102
#
# Disc length: 3407 seconds
#
# Revision: 0
# Processed by: cddbd v1.5.2PL0 Copyright (c) Steve Scherf et al.
# Submitted via: ExactAudioCopy v0.90b4
#
DISCID=a20d4d0d
DTITLE=Various Artist - All Blues'd Up!: The Songs Of Janis Joplin
DYEAR=2003
DGENRE=Blues
TTITLE0=Tracy Nelson - What Good Can Drinkin' Do
TTITLE1=Tad Robinson - Move Over
TTITLE2=Etta James - Ball And Chain
TTITLE3=Otis Clay - Piece Of My Heart
TTITLE4=Cathy Richardson and Sugar Blue - Try (Just A Little Bit Harder)
TTITLE5=Syl Johnson - Me And Bobby McGee
TTITLE6=Paul Black - Down On Me
TTITLE7=Lynn Jordan - Turtle Blues
TTITLE8=Koko Taylor - Get It While You Can
TTITLE9=Lonnie Brooks - Maybe
TTITLE10=Willie Kent - Trouble In Mind
TTITLE11=Lou Ann Barton - One Good Man
TTITLE12=Taj Mahal - Mercedes Benz
EXTD=
EXTT0=
EXTT1=
EXTT2=
EXTT3=
EXTT4=
EXTT5=
EXTT6=
EXTT7=
EXTT8=
EXTT9=
EXTT10=
EXTT11=
EXTT12=
PLAYORDER=
